<svg width="155" height="20" viewBox="0 0 155 20" fill="none" xmlns="http://www.w3.org/2000/svg">
<path d="M145 19.9966C150.523 19.9966 155 15.5202 155 9.99829C155 4.47639 150.523 0 145 0C139.477 0 135 4.47639 135 9.99829C135 15.5202 139.477 19.9966 145 19.9966Z" fill="#273B7A"/>
<path d="M154.775 12.1135L148.661 6.00049L143.563 6.40729L140.959 8.78378L141.294 13.9534L147.083 19.7783C150.923 18.9648 153.948 15.9482 154.775 12.1135Z" fill="#121149"/>
<path d="M145.218 9.07857V10.9944H148.215C147.79 12.3658 146.512 13.362 145 13.362C143.142 13.362 141.635 11.8557 141.635 9.99748C141.635 8.13944 143.142 6.63308 145 6.63308C145.869 6.63308 146.658 6.96492 147.255 7.505L148.661 5.99993C147.696 5.11657 146.411 4.57715 145 4.57715C142.006 4.57715 139.579 7.0039 139.579 9.99756C139.579 12.9912 142.006 15.418 145 15.418C147.994 15.418 150.422 12.9912 150.422 9.99756C150.422 9.68395 150.393 9.37742 150.341 9.07857H145.218Z" fill="#4285F4"/>
<path d="M145 6.63359C145.869 6.63359 146.658 6.96551 147.255 7.5057L148.661 6.00031C147.696 5.11668 146.411 4.57715 145 4.57715C142.924 4.57715 141.121 5.74496 140.21 7.4591L141.864 8.78414C142.352 7.52672 143.57 6.63359 145 6.63359Z" fill="#EA4335"/>
<path d="M141.635 9.99904C141.635 9.57021 141.718 9.16166 141.865 8.78451L140.21 7.45947C139.808 8.21717 139.579 9.08123 139.579 9.99908C139.579 10.9212 139.81 11.7891 140.216 12.5493L141.86 11.2015C141.717 10.8275 141.635 10.4233 141.635 9.99904Z" fill="#FBBC05"/>
<path d="M146.871 12.7931C146.336 13.1522 145.694 13.3635 145.001 13.3635C143.566 13.3635 142.345 12.4646 141.861 11.2007L140.216 12.5485C141.128 14.2569 142.928 15.4198 145 15.4198C146.346 15.4198 147.576 14.9285 148.524 14.1168L146.871 12.7931Z" fill="#34A853"/>
<path d="M150.422 9.99779C150.422 9.68412 150.393 9.37752 150.341 9.07861H145.218V10.9948H148.215C147.985 11.7376 147.503 12.3685 146.871 12.7926L148.524 14.1163C149.685 13.1219 150.422 11.6463 150.422 9.99779Z" fill="#4285F4"/>
<path d="M64.6576 3.57648C64.4756 1.87123 63.1285 0.524177 61.4227 0.342332C57.1451 -0.114111 52.8549 -0.114111 48.5774 0.342332C46.8716 0.524329 45.5244 1.87123 45.3424 3.57648C44.8859 7.85304 44.8859 12.1424 45.3424 16.419C45.5244 18.1244 46.8716 19.4713 48.5773 19.6533C52.8548 20.1097 57.1451 20.1097 61.4227 19.6533C63.1285 19.4713 64.4756 18.1244 64.6576 16.419C65.1141 12.1424 65.1141 7.85319 64.6576 3.57648Z" fill="url(#paint0_radial_23_68)"/>
<path d="M63.5699 4.2996C63.4085 2.78643 62.2131 1.59118 60.6995 1.42963C56.9037 1.02476 53.0966 1.02476 49.3008 1.42963C47.7873 1.59118 46.5918 2.78643 46.4302 4.2996C46.0252 8.09449 46.0252 11.9007 46.4302 15.6954C46.5918 17.2087 47.7873 18.404 49.3008 18.5654C53.0966 18.9704 56.9037 18.9704 60.6993 18.5654C62.213 18.404 63.4085 17.2087 63.5699 15.6954C63.9751 11.9007 63.9751 8.09449 63.5699 4.2996Z" fill="url(#paint1_linear_23_68)"/>
<path d="M45.2993 16.0029C45.313 16.1412 45.3272 16.2794 45.342 16.4176C45.5241 18.1232 46.8713 19.4704 48.5771 19.6524C52.8546 20.1089 57.1449 20.1089 61.4224 19.6524C63.1281 19.4704 64.4752 18.1232 64.6572 16.4176C64.672 16.2794 64.6862 16.1412 64.7001 16.0029H45.2993Z" fill="url(#paint2_linear_23_68)"/>
<path d="M64.6575 16.42C64.9028 14.1221 65.016 11.8205 64.9977 9.51927L60.4262 4.94878C59.8551 4.29692 59.0209 3.89006 58.0407 3.85482C56.0248 3.7822 54.0026 3.78586 51.9864 3.85512C50.3119 3.91279 49.141 5.03802 48.8407 6.69185C48.7878 6.98384 48.756 7.27964 48.7144 7.57376V12.4222C48.7374 12.5793 48.7713 12.7357 48.7818 12.8937C48.8489 13.8997 49.2624 14.7613 49.9245 15.3442L54.5766 19.9951C56.8596 20.0111 59.1428 19.8976 61.4226 19.6543C63.1284 19.4723 64.4754 18.1254 64.6575 16.42Z" fill="url(#paint3_linear_23_68)"/>
<path d="M64.6575 16.4182C64.4756 18.1233 63.1281 19.4705 61.4226 19.6523C59.1431 19.8955 56.8595 20.0092 54.5767 19.9931L49.9316 15.3491C50.4701 15.8203 51.172 16.1073 51.9865 16.1379C54.0022 16.2136 56.0249 16.2116 58.0406 16.139C59.8638 16.0731 61.183 14.7241 61.24 12.9013C61.3007 10.966 61.3007 9.02567 61.24 7.09036C61.214 6.24947 60.9188 5.50958 60.4293 4.94971L64.9979 9.51735C65.0159 11.8183 64.9027 14.1202 64.6575 16.4182Z" fill="url(#paint4_linear_23_68)"/>
<path d="M57.3602 7.83293C56.7746 7.19541 55.9343 6.79541 55.0003 6.79541C53.2312 6.79541 51.7969 8.22942 51.7969 9.99814C51.7969 10.9319 52.197 11.772 52.8346 12.3575L60.2463 19.7676C60.6386 19.7334 61.0309 19.6954 61.4229 19.6536C63.1286 19.4716 64.4758 18.1247 64.6579 16.4193C64.6997 16.0274 64.7377 15.6352 64.7719 15.243L57.3602 7.83293Z" fill="url(#paint5_linear_23_68)"/>
<path d="M64.9613 12.1516L58.9964 6.18834C58.8572 6.00574 58.6379 5.88721 58.3906 5.88721C57.9698 5.88721 57.6284 6.22831 57.6284 6.64919C57.6284 6.89647 57.747 7.11568 57.9296 7.25481L64.8546 14.1782C64.9016 13.5029 64.9372 12.8273 64.9613 12.1516Z" fill="url(#paint6_linear_23_68)"/>
<path d="M48.7144 7.57371C48.756 7.27959 48.7878 6.98379 48.8407 6.69181C49.1408 5.038 50.3119 3.91279 51.9864 3.85512C54.0026 3.78586 56.0248 3.7822 58.0407 3.85482C59.8632 3.92041 61.1831 5.26958 61.24 7.09226C61.3005 9.02767 61.3005 10.9678 61.24 12.9032C61.1831 14.7259 59.8636 16.0749 58.0408 16.1407C56.025 16.2134 54.0023 16.2153 51.9866 16.1396C50.1638 16.0711 48.9037 14.7189 48.7818 12.8935C48.7713 12.7356 48.7374 12.5791 48.7144 12.4219C48.7144 10.8058 48.7144 9.18968 48.7144 7.57371ZM55.0016 15.0605C55.9241 15.0605 56.8476 15.0881 57.7689 15.0541C59.2135 15.0005 60.102 14.1386 60.1357 12.6958C60.1775 10.8979 60.1775 9.09769 60.1357 7.29973C60.102 5.8572 59.2128 4.97515 57.7689 4.94449C55.9362 4.90574 54.1015 4.90605 52.2687 4.94449C50.8358 4.97454 49.9447 5.83874 49.9058 7.2654C49.8563 9.08595 49.8563 10.9097 49.9058 12.7302C49.9447 14.1567 50.8358 15.001 52.2689 15.0541C53.1786 15.0879 54.0906 15.0605 55.0016 15.0605Z" fill="url(#paint7_linear_23_68)"/>
<path d="M48.7144 7.57371C48.756 7.27959 48.7878 6.98379 48.8407 6.69181C49.1408 5.038 50.3119 3.91279 51.9864 3.85512C54.0026 3.78586 56.0248 3.7822 58.0407 3.85482C59.8632 3.92041 61.1831 5.26958 61.24 7.09226C61.3005 9.02767 61.3005 10.9678 61.24 12.9032C61.1831 14.7259 59.8636 16.0749 58.0408 16.1407C56.025 16.2134 54.0023 16.2153 51.9866 16.1396C50.1638 16.0711 48.9037 14.7189 48.7818 12.8935C48.7713 12.7356 48.7374 12.5791 48.7144 12.4219C48.7144 10.8058 48.7144 9.18968 48.7144 7.57371ZM55.0016 15.0605C55.9241 15.0605 56.8476 15.0881 57.7689 15.0541C59.2135 15.0005 60.102 14.1386 60.1357 12.6958C60.1775 10.8979 60.1775 9.09769 60.1357 7.29973C60.102 5.8572 59.2128 4.97515 57.7689 4.94449C55.9362 4.90574 54.1015 4.90605 52.2687 4.94449C50.8358 4.97454 49.9447 5.83874 49.9058 7.2654C49.8563 9.08595 49.8563 10.9097 49.9058 12.7302C49.9447 14.1567 50.8358 15.001 52.2689 15.0541C53.1786 15.0879 54.0906 15.0605 55.0016 15.0605Z" fill="white"/>
<path d="M55.0003 6.7959C53.2312 6.7959 51.7969 8.22975 51.7969 9.99846C51.7969 11.7673 53.2312 13.2012 55.0003 13.2012C56.7696 13.2012 58.2037 11.7673 58.2037 9.99846C58.2037 8.22975 56.7696 6.7959 55.0003 6.7959ZM55.0003 12.0985C53.8402 12.0985 52.8998 11.1583 52.8998 9.99846C52.8998 8.83859 53.8402 7.8984 55.0003 7.8984C56.1604 7.8984 57.1008 8.83859 57.1008 9.99846C57.1008 11.1583 56.1604 12.0985 55.0003 12.0985Z" fill="white"/>
<path d="M59.1526 6.64789C59.1526 7.06871 58.8114 7.40988 58.3906 7.40988C57.9698 7.40988 57.6284 7.06871 57.6284 6.64789C57.6284 6.22692 57.9698 5.88574 58.3906 5.88574C58.8114 5.88574 59.1526 6.22692 59.1526 6.64789Z" fill="white"/>
<path d="M17.5 0H2.5C1.12083 0 0 1.12064 0 2.49957V17.497C0 18.8751 1.12083 19.9966 2.5 19.9966H17.5C18.8783 19.9966 20 18.8751 20 17.497V2.49957C20 1.12064 18.8783 0 17.5 0Z" fill="#3B5999"/>
<path d="M13.75 9.99838V7.49884C13.75 6.80896 14.31 6.87395 15 6.87395H16.25V3.74951H13.75C11.6783 3.74951 10 5.42754 10 7.49884V9.99838H7.5V13.1228H10V19.9966H13.75V13.1228H15.625L16.875 9.99838H13.75Z" fill="white"/>
<path d="M106.423 19.6542C102.145 20.1107 97.8548 20.1107 93.5773 19.6542C91.8716 19.4722 90.5244 18.1253 90.3424 16.4198C89.8859 12.143 89.8859 7.85342 90.3424 3.57666C90.5244 1.87132 91.8716 0.524355 93.5773 0.342349C97.8548 -0.114116 102.145 -0.114116 106.423 0.342349C108.128 0.524355 109.476 1.87132 109.658 3.57666C110.114 7.85342 110.114 12.143 109.658 16.4198C109.476 18.1253 108.129 19.4722 106.423 19.6542Z" fill="url(#paint8_linear_23_68)"/>
<path d="M108.57 4.29969C108.409 2.78648 107.213 1.5912 105.699 1.42964C101.904 1.02476 98.0966 1.02476 94.3008 1.42964C92.7873 1.5912 91.5918 2.78648 91.4302 4.29969C91.0252 8.09468 91.0252 11.901 91.4302 15.6958C91.5918 17.2092 92.7873 18.4044 94.3008 18.5659C98.0966 18.9709 101.904 18.9709 105.699 18.5659C107.213 18.4044 108.409 17.2092 108.57 15.6958C108.975 11.901 108.975 8.09468 108.57 4.29969Z" fill="url(#paint9_linear_23_68)"/>
<path d="M90.2998 16.0049C90.3135 16.1431 90.3277 16.2814 90.3425 16.4196C90.5246 18.1252 91.8718 19.4724 93.5775 19.6545C97.855 20.111 102.145 20.111 106.423 19.6545C108.129 19.4724 109.476 18.1252 109.658 16.4196C109.673 16.2814 109.687 16.1431 109.701 16.0049H90.2998Z" fill="url(#paint10_linear_23_68)"/>
<path d="M109.996 9.29563L105.844 5.14505C105.379 5.41096 104.969 5.55849 104.66 5.64026C104.487 5.68679 104.345 5.71212 104.243 5.726C103.775 5.24619 103.121 4.94824 102.398 4.94824C100.974 4.94824 99.8197 6.10222 99.8197 7.52592C99.8197 7.57733 99.821 7.62813 99.8244 7.67878C99.8313 7.80221 99.847 7.92349 99.8712 8.04142C99.2769 8.03257 97.3452 7.87391 95.5028 6.2949C95.5027 6.2949 95.5027 6.29475 95.5027 6.29475H95.5025L94.6337 5.42591C94.6337 5.42591 93.6144 7.20462 95.1129 8.55433C95.1787 8.62772 95.251 8.70018 95.3302 8.77143C95.3365 8.77845 95.343 8.78531 95.3493 8.79233C95.1526 8.77906 94.561 8.72017 94.2186 8.47836C94.2186 8.47836 94.1498 9.56551 95.0557 10.3658L95.7872 11.1035C95.5645 11.1219 95.318 11.1175 95.1467 11.0425C95.1467 11.0425 95.2983 11.6864 95.8846 12.2018L96.9094 13.2317C96.2946 13.5898 95.2184 14.0378 93.8018 13.9234L100.018 19.9966C102.154 19.996 104.29 19.8819 106.423 19.6542C108.129 19.4722 109.476 18.1253 109.658 16.4199C109.911 14.0476 110.024 11.6713 109.996 9.29563Z" fill="url(#paint11_linear_23_68)"/>
<path d="M106.198 6.14611C105.756 6.37753 105.089 6.48447 104.869 6.51529C104.867 6.50461 104.865 6.49439 104.863 6.48417C105.614 6.01964 105.844 5.14504 105.844 5.14504C105.379 5.41094 104.969 5.55846 104.66 5.64023C104.486 5.68676 104.345 5.71193 104.243 5.72597C103.775 5.24603 103.121 4.94824 102.397 4.94824C100.974 4.94824 99.8194 6.10202 99.8194 7.52581C99.8194 7.57707 99.8207 7.62803 99.8241 7.67852C99.831 7.80194 99.8467 7.92322 99.8709 8.04115C99.1819 8.03092 96.6945 7.81964 94.6333 5.42589C94.6333 5.42589 93.4856 7.42803 95.4152 8.79568C95.4152 8.79568 94.6333 8.77127 94.2183 8.47822C94.2183 8.47822 94.0962 10.4074 96.3187 11.0176C96.3187 11.0176 95.5373 11.2132 95.1462 11.0422C95.1462 11.0422 95.5371 12.7026 97.491 12.825C97.491 12.825 96.0896 14.1077 93.8013 13.9231C94.9268 14.6355 96.2612 15.0479 97.6918 15.0479C101.715 15.0479 104.976 11.7876 104.976 7.76578C104.976 7.71559 104.975 7.6654 104.974 7.61521C104.975 7.58546 104.976 7.55587 104.976 7.52581C104.976 7.50491 104.975 7.48401 104.975 7.46311C105.719 6.96761 106.198 6.14611 106.198 6.14611Z" fill="white"/>
<defs>
<radialGradient id="paint0_radial_23_68" cx="0" cy="0" r="1" gradientUnits="userSpaceOnUse" gradientTransform="translate(49.0999 17.4746) scale(22.0565 22.0516)">
<stop stop-color="#FAE100"/>
<stop offset="0.0544" stop-color="#FADC04"/>
<stop offset="0.1167" stop-color="#FBCE0E"/>
<stop offset="0.1829" stop-color="#FCB720"/>
<stop offset="0.2514" stop-color="#FE9838"/>
<stop offset="0.3054" stop-color="#FF7950"/>
<stop offset="0.4922" stop-color="#FF1C74"/>
<stop offset="1" stop-color="#6C1CD1"/>
</radialGradient>
<linearGradient id="paint1_linear_23_68" x1="52.6709" y1="8.68771" x2="18.7924" y2="-10.3734" gradientUnits="userSpaceOnUse">
<stop stop-color="#A1B5D8" stop-opacity="0"/>
<stop offset="0.3094" stop-color="#90A2BD" stop-opacity="0.309804"/>
<stop offset="0.7554" stop-color="#7C8B9C" stop-opacity="0.756863"/>
<stop offset="1" stop-color="#748290"/>
</linearGradient>
<linearGradient id="paint2_linear_23_68" x1="54.9996" y1="17.6498" x2="54.9996" y2="20.7672" gradientUnits="userSpaceOnUse">
<stop stop-color="#FAE100" stop-opacity="0"/>
<stop offset="0.3068" stop-color="#FCA800" stop-opacity="0.305882"/>
<stop offset="0.6275" stop-color="#FE7300" stop-opacity="0.627451"/>
<stop offset="0.8685" stop-color="#FF5200" stop-opacity="0.866667"/>
<stop offset="1" stop-color="#FF4500"/>
</linearGradient>
<linearGradient id="paint3_linear_23_68" x1="53.8621" y1="8.83307" x2="48.9135" y2="3.8834" gradientUnits="userSpaceOnUse">
<stop stop-color="#833AB4" stop-opacity="0"/>
<stop offset="1" stop-color="#833AB4"/>
</linearGradient>
<linearGradient id="paint4_linear_23_68" x1="58.7069" y1="18.2875" x2="56.2374" y2="6.64334" gradientUnits="userSpaceOnUse">
<stop stop-color="#833AB4" stop-opacity="0"/>
<stop offset="1" stop-color="#833AB4"/>
</linearGradient>
<linearGradient id="paint5_linear_23_68" x1="59.6474" y1="14.6442" x2="49.7267" y2="4.7214" gradientUnits="userSpaceOnUse">
<stop stop-color="#833AB4" stop-opacity="0"/>
<stop offset="1" stop-color="#833AB4"/>
</linearGradient>
<linearGradient id="paint6_linear_23_68" x1="60.3832" y1="8.64122" x2="57.1027" y2="5.35995" gradientUnits="userSpaceOnUse">
<stop stop-color="#833AB4" stop-opacity="0"/>
<stop offset="1" stop-color="#833AB4"/>
</linearGradient>
<linearGradient id="paint7_linear_23_68" x1="58.9709" y1="6.05639" x2="50.8824" y2="14.1468" gradientUnits="userSpaceOnUse">
<stop stop-color="#833AB4"/>
<stop offset="0.0922" stop-color="#9C3495"/>
<stop offset="0.2927" stop-color="#DC2546"/>
<stop offset="0.392" stop-color="#FD1D1D"/>
<stop offset="0.5589" stop-color="#FC6831"/>
<stop offset="0.6887" stop-color="#FC9B40"/>
<stop offset="0.7521" stop-color="#FCAF45"/>
<stop offset="0.7806" stop-color="#FDB750"/>
<stop offset="0.8656" stop-color="#FECB6A"/>
<stop offset="0.9415" stop-color="#FFD87A"/>
<stop offset="1" stop-color="#FFDC80"/>
</linearGradient>
<linearGradient id="paint8_linear_23_68" x1="96.6404" y1="2.81148" x2="101.698" y2="13.6333" gradientUnits="userSpaceOnUse">
<stop stop-color="#00C3FF"/>
<stop offset="1" stop-color="#00B0ED"/>
</linearGradient>
<linearGradient id="paint9_linear_23_68" x1="104.23" y1="12.2664" x2="75.1752" y2="-3.32288" gradientUnits="userSpaceOnUse">
<stop stop-color="#00B0ED" stop-opacity="0"/>
<stop offset="1" stop-color="#00A2CE"/>
</linearGradient>
<linearGradient id="paint10_linear_23_68" x1="100" y1="17.0822" x2="100" y2="19.7028" gradientUnits="userSpaceOnUse">
<stop stop-color="#00B0ED" stop-opacity="0"/>
<stop offset="1" stop-color="#00A2CE"/>
</linearGradient>
<linearGradient id="paint11_linear_23_68" x1="109.118" y1="18.8277" x2="99.3493" y2="9.05714" gradientUnits="userSpaceOnUse">
<stop stop-color="#00B0ED" stop-opacity="0"/>
<stop offset="1" stop-color="#00A2CE"/>
</linearGradient>
</defs>
</svg>
